<svg xmlns="http://www.w3.org/2000/svg" fill-rule="evenodd" fill="#D8D2C2" fill-opacity="1" viewBox="0 0 64 80" x="0px" y="0px"><path d="M13.35,62.5h10.082v-.002c-.295-2.124-1.627-9.815-5.744-13.108-.04-.032-.075-.07-.104-.113l-2-3c-.085-.128-.107-.289-.058-.436l1-3c.045-.102,1.841-3.769,.121-5.488l-.265-.188c-.128-.095-.291-.123-.445-.079s-.276,.154-.335,.303l-2.769,6.969c-.187,.422-.196,.888-.032,1.298l1.664,4.159c.103,.256-.022,.547-.279,.649-.253,.103-.548-.021-.65-.278l-1.664-4.159c-.264-.658-.25-1.408,.039-2.057l2.762-6.95c.175-.438,.535-.765,.989-.895,.047-.013,.094-.015,.142-.024l1.079-2.877-.65-.975c-.063-.095-.144-.106-.205-.106-.049,0-.14,.018-.199,.116l-3.328,5.546v.047h-.028l-1.589,2.647c-.258,.431-.415,.922-.454,1.421l-.203,2.564-.177,7.01c-.031,1.239,.172,2.455,.604,3.615l2.696,7.391Z"/><path d="M12.5,32.5v3.362l2.471-4.118c.213-.355,.583-.573,.994-.595-.366-.396-.885-.649-1.465-.649-1.103,0-2,.897-2,2Z"/><path d="M51.5,32.5c0-1.103-.897-2-2-2s-2,.897-2,2v6.099c0,1.103,.897,2,2,2s2-.897,2-2v-6.099Z"/><path d="M51.5,20.694c0-10.584-7.932-19.194-17.682-19.194h-3.637C20.432,1.5,12.5,10.11,12.5,20.694v9.586c.532-.48,1.229-.78,2-.78s1.468,.301,2,.78v-6.28c0-.182,.099-.35,.258-.438,2.265-1.25,4.235-2.891,5.854-4.878,1.182-1.451,2.152-3.064,2.888-4.794v-4.891c0-.276,.224-.5,.5-.5s.5,.224,.5,.5v4.844c.871,1.229,8.476,11.407,20.428,9.662,.143-.021,.289,.021,.399,.116,.11,.095,.173,.233,.173,.378v6.28c.532-.48,1.229-.78,2-.78s1.468,.301,2,.78v-9.586Z"/><path d="M51.5,62.5v-21.682c-.532,.48-1.229,.78-2,.78-1.044,0-1.964-.538-2.501-1.35-.604,2.364-1.892,5.433-4.651,8.109-1.369,1.328-2.816,2.289-4.21,2.987,.025,.066,.038,.137,.032,.212-.169,2.145-.259,7.443,2.398,10.942h10.932Z"/><path d="M37.151,51.801c-2.031,.861-3.878,1.19-5.103,1.309-1.28-.119-3.154-.448-5.2-1.313,.15,2.295,.127,7.129-2.191,10.703h14.685c-2.317-3.572-2.341-8.403-2.191-10.699Z"/><path d="M18.279,40.585c-.017,.105-.036,.208-.057,.31,.823,2.614,2.208,4.885,4.126,6.747,3.519,3.414,7.588,4.268,9.7,4.472,2.016-.204,6.084-1.058,9.604-4.472,3.954-3.837,4.708-8.54,4.848-10.401v-12.67c-11.081,1.304-18.458-7.079-20.401-9.594-.728,1.552-1.63,3.013-2.711,4.339-1.639,2.01-3.618,3.684-5.888,4.977v7.283l.396-1.057c.183-.487,.619-.807,1.14-.834,.501-.028,.987,.245,1.22,.71l.425,.85c.142,.284,.247,.58,.321,.882l.378,.123c2.421,.797,4.172,1.373,6.414,.387,.355-.155,.754-.331,1.203-.253,.454,.077,.855,.41,1.048,.869,.148,.353,.175,.77,.078,1.206-.161,.716-.625,1.379-1.31,1.868-.513,.366-1.136,.637-1.962,.853-.54,.142-1.044,.201-1.525,.201-1.264,0-2.367-.412-3.515-.841-.496-.185-1.015-.369-1.559-.535l-1.974,4.58Zm10.161-10.583c-1.062,.708-2.117,.944-3.052,.944-1.812,0-3.174-.887-3.259-.944-.229-.153-.291-.462-.139-.692,.152-.23,.461-.293,.692-.141,.106,.07,2.646,1.705,5.203,0,.23-.153,.54-.091,.693,.139s.091,.54-.139,.693Zm6.981-.692c.152-.23,.461-.293,.692-.141,.106,.071,2.645,1.706,5.203,0,.229-.153,.54-.091,.693,.139,.153,.229,.091,.54-.139,.693-1.062,.708-2.116,.944-3.051,.944-1.813,0-3.175-.887-3.26-.944-.229-.153-.291-.462-.139-.692Zm-7.711,13.544c.118-.248,.413-.357,.665-.239,.037,.017,3.679,1.685,7.249,0,.25-.116,.547-.011,.666,.238,.118,.25,.011,.548-.239,.666-1.363,.644-2.717,.858-3.917,.858-2.327,0-4.075-.807-4.184-.858-.25-.118-.356-.415-.239-.665Z"/><path d="M16.974,36.359l.323,.238c.476,.475,.757,1.033,.914,1.619l1.656-3.841c.37-.863,.342-1.842-.079-2.684l-.425-.85c-.076-.153-.213-.163-.273-.159-.057,.003-.195,.027-.255,.187l-2.023,5.396c.055,.031,.113,.056,.164,.094Z"/><path d="M26.599,36.213c.704-.185,1.223-.406,1.634-.699,.483-.346,.808-.798,.915-1.273,.036-.162,.061-.397-.024-.601-.059-.14-.18-.251-.294-.271-.154-.026-.38,.072-.598,.168-2.614,1.151-4.708,.471-7.125-.324-.012,.53-.107,1.059-.321,1.559l-.134,.311c.529,.165,1.032,.343,1.51,.521,1.496,.559,2.788,1.041,4.438,.609Z"/><path d="M18.374,48.659c3.836,3.123,5.351,9.493,5.877,12.566,1.818-3.405,1.728-7.771,1.579-9.667-.006-.076,.008-.147,.033-.214-1.398-.698-2.843-1.658-4.211-2.985-1.706-1.654-3.01-3.614-3.905-5.832-.152,.396-.279,.657-.299,.698l-.896,2.702,1.822,2.733Z"/></svg>