<svg xmlns="http://www.w3.org/2000/svg" fill-rule="evenodd" fill="#D8D2C2" fill-opacity="1" viewBox="0 0 64 80" x="0px" y="0px"><g data-name="rinse-wash-wash hands-clean-water"><path d="M48,8a1,1,0,0,0-2,0v7.68a7.015,7.015,0,0,1,2,1.43Z"/><path d="M18,8a1,1,0,0,0-2,0v9.11a7.015,7.015,0,0,1,2-1.43Z"/><path d="M37,55.849l-1.05,2.8A1,1,0,0,0,36.886,60h.228a1,1,0,0,0,.936-1.352Z"/><path d="M27,49.849l-1.05,2.8A1,1,0,0,0,26.886,54h.228a1,1,0,0,0,.936-1.352Z"/><path d="M59,12a.928.928,0,0,0-.69.29A.949.949,0,0,0,58,13V24H56V8a1,1,0,0,0-2,0V24H52V5a1,1,0,0,0-2,0V24h-.3a6.835,6.835,0,0,1-.96,2,6.983,6.983,0,0,1-2.75,10.32,6.969,6.969,0,0,1-1.85,4.42l.78,1.88A1,1,0,0,1,45,43V60H55V43a1,1,0,0,1,.08-.38l4.54-10.89A5.145,5.145,0,0,0,60,29.8V13A1,1,0,0,0,59,12Z"/><path d="M43.98,35.72a1.019,1.019,0,0,1,.67-1.01,4.981,4.981,0,0,0,2.07-8.04,1.008,1.008,0,0,1,0-1.34,4.983,4.983,0,0,0-2.89-8.25A1,1,0,0,1,43,16.06,5.015,5.015,0,0,0,38,11a4.742,4.742,0,0,0-.65.05,1.016,1.016,0,0,1-1-.5,4.985,4.985,0,0,0-8.7,0,1.016,1.016,0,0,1-1,.5A4.742,4.742,0,0,0,26,11a5,5,0,0,0-5,5,1.107,1.107,0,0,1-.83,1.08,4.983,4.983,0,0,0-2.89,8.25,1.008,1.008,0,0,1,0,1.34,4.981,4.981,0,0,0,2.07,8.04,1.019,1.019,0,0,1,.67,1.01s-.01.09-.01.1A1.087,1.087,0,0,0,20,36a5,5,0,0,0,5,5,5.077,5.077,0,0,0,1.39-.2.947.947,0,0,1,.28-.04.99.99,0,0,1,.89.54,5,5,0,0,0,8.88,0,.989.989,0,0,1,1.17-.5A5.077,5.077,0,0,0,39,41a5,5,0,0,0,5-5,1.087,1.087,0,0,0-.01-.18C43.99,35.81,43.98,35.72,43.98,35.72Z"/><path d="M14,30a6.953,6.953,0,0,1,1.26-4,6.978,6.978,0,0,1-1.18-3H14V5a1,1,0,0,0-2,0V23H10V8A1,1,0,0,0,8,8V23H6V13a.928.928,0,0,0-.29-.69A.949.949,0,0,0,5,12a1,1,0,0,0-1,1V29.8a5.145,5.145,0,0,0,.38,1.93L8.92,42.62A1,1,0,0,1,9,43V60H19V43a1,1,0,0,1,.08-.38l.78-1.88a6.969,6.969,0,0,1-1.85-4.42A7,7,0,0,1,14,30Z"/></g></svg>