<svg xmlns="http://www.w3.org/2000/svg" fill-rule="evenodd" fill="#D8D2C2" fill-opacity="1" version="1.1" viewBox="-5.0 -10.0 110.0 135.0">
 <path d="m56.957 52.777c-1.4727 0-2.6719 1.1953-2.668 2.6719 0 1.4727 1.1953 2.668 2.668 2.668 1.4766 0 2.6719-1.1953 2.6719-2.668 0-1.4766-1.1953-2.668-2.668-2.668h-0.003907zm0-22.59c1.0742 0 1.9453 0.87109 1.9453 1.9453l0.003906 17.051c2.6719 0.83203 4.6094 3.3203 4.6094 6.2656 0 1.1055-0.26953 2.1445-0.75391 3.0586l8.4062 8.3945c0.75781 0.75781 0.75781 1.9883 0 2.75-0.37891 0.37891-0.87891 0.57031-1.375 0.57031-0.49609 0-0.99609-0.19141-1.375-0.57031l-8.4062-8.3984c-0.91406 0.48047-1.9531 0.75391-3.0547 0.75391-3.6211 0-6.5586-2.9375-6.5586-6.5586 0-2.9453 1.9375-5.4336 4.6094-6.2656l0.003907-17.051c0-1.0742 0.87109-1.9453 1.9414-1.9453l0.003906 0.003906zm18.27 41.582c0.49609 0 0.99219 0.1875 1.3711 0.56641v0.003906c0.75781 0.75781 0.75781 1.9883 0 2.7461-0.37891 0.38281-0.87891 0.57031-1.375 0.57031s-0.99609-0.1875-1.375-0.56641v-0.003906c-0.76172-0.75781-0.76172-1.9883 0-2.75 0.37891-0.37891 0.87109-0.56641 1.3672-0.56641zm-25.246-61.48v0.003907h-0.015625c-0.51172 0-1 0.20703-1.3594 0.56641-0.36328 0.36328-0.57031 0.85938-0.57031 1.375v4.7695c0 0.51562 0.20703 1.0117 0.57031 1.375 0.36328 0.36328 0.85938 0.57031 1.375 0.57031h5.0312l-0.003907 2.3047c-15.773 0.88281-28.695 12.441-31.66 27.57h-7.9102c-1.0742 0-1.9414 0.86719-1.9414 1.9414s0.86719 1.9453 1.9414 1.9453l16.539 0.011718c1.7031 0 3.0859 1.3789 3.0859 3.082 0 1.7031-1.3828 3.0859-3.0859 3.0859l-17.426 0.003906h-0.003906c-1.0664 0-1.9297 0.86719-1.9297 1.9375-0.003907 1.0742 0.86719 1.9453 1.9414 1.9453h24.832c1.6875 0 3.0586 1.3711 3.0586 3.0586 0 1.6914-1.3633 3.0625-3.0547 3.0625l-19.594 0.003906h-0.003906c-1.0703 0-1.9336 0.86719-1.9336 1.9375 0 1.0742 0.87109 1.9453 1.9453 1.9453h20.148c1.4648 0 2.625 1.3672 2.6211 2.8711 0 1.5898-1.2891 2.8789-2.8789 2.8789l-28.965-0.007812c-1.0742 0-1.9453 0.87109-1.9453 1.9453 0 1.0742 0.87109 1.9453 1.9453 1.9453h25.105c5.8203 4.5625 13.152 7.2812 21.117 7.2812 18.918 0 34.25-15.336 34.25-34.25 0-11.984-6.1523-22.531-15.473-28.648l1.4141-2.457 1.6055 0.92578c0.30469 0.17578 0.63672 0.25781 0.96875 0.25781 0.67188 0 1.3242-0.34766 1.6836-0.97266l2.3828-4.125c0.53906-0.92969 0.21875-2.1211-0.71094-2.6562l-6.5703-3.7969c-0.30078-0.17578-0.63672-0.26172-0.97266-0.26172-0.17188 0-0.33984 0.019531-0.50391 0.066406-0.5 0.13281-0.92578 0.45703-1.1836 0.90625l-2.3828 4.1289c-0.25781 0.44531-0.32812 0.97656-0.19531 1.4766 0.13281 0.49609 0.46094 0.92188 0.90625 1.1797l1.6055 0.92578-1.418 2.4531c-4.082-2.0625-8.6367-3.3281-13.457-3.5977l-0.003906-2.3047 5.0312-0.003907c1.0742 0 1.9453-0.87109 1.9453-1.9453v-4.7656c0-1.0742-0.87109-1.9414-1.9453-1.9414z"/>
</svg>