<svg xmlns="http://www.w3.org/2000/svg" fill-rule="evenodd" fill="#D8D2C2" fill-opacity="1" viewBox="0 0 40 50" x="0px" y="0px"><path d="m25.31,31.83c-1.44.73-3.19,1.17-5.31,1.17s-3.87-.44-5.31-1.17c-.37,2-.83,3.68-1.45,4.84-.39.73-.79,1.25-1.37,1.33-.55.07-.93.58-.85,1.13.07.55.58.93,1.13.85.49-.07,4.34.01,7.86,0,3.79,0,7.28-.09,7.86,0,.55.08,1.05-.31,1.13-.85.08-.55-.31-1.05-.85-1.13-.58-.08-.98-.6-1.37-1.33-.62-1.17-1.08-2.85-1.45-4.84h0Zm8.69,8.17h5c.55,0,1-.45,1-1v-6c0-3.68-.35-6.84-1.04-8.4-.49-1.12-1.23-1.6-1.96-1.6-1.74,0-2.56,1.34-2.76,3.29-.12,1.24,0,2.74,0,3.93,0,.4.02.76-.03,1.03-.25-.04-.63-.1-.89-.11-.79-.02-1.61.2-2.21,1.41-.57,1.15-.29,2.3.32,3.26.47.73,1.14,1.33,1.57,1.69v1.5c0,.55.45,1,1,1h0Zm-33,0h5c.55,0,1-.45,1-1v-1.5c.43-.35,1.1-.95,1.57-1.69.62-.96.9-2.11.32-3.26-.6-1.21-1.42-1.43-2.21-1.41-.26,0-.64.07-.89.11-.05-.27-.03-.63-.03-1.03,0-1.2.12-2.69,0-3.93-.19-1.95-1.02-3.29-2.76-3.29-.73,0-1.47.48-1.96,1.6-.69,1.57-1.04,4.73-1.04,8.4v6c0,.55.45,1,1,1h0Zm19.5-6c-1.38,0-2.5,1.12-2.5,2.5s1.12,2.5,2.5,2.5,2.5-1.12,2.5-2.5-1.12-2.5-2.5-2.5h0Zm0,2c.28,0,.5.22.5.5s-.22.5-.5.5-.5-.22-.5-.5.22-.5.5-.5h0Zm-12.44-11.85c.54-.55,1.31-.94,2.36-1.09.55-.78,1.2-1.25,1.84-1.5,1.27-.48,2.58-.13,3.45.74.62.62.79,1.47.72,2.29-.06.63-.26,1.22-.4,1.56.15,1.42-.59,2.8-1.73,3.49,1.51.85,3.38,1.37,5.7,1.37,2.17,0,3.96-.46,5.42-1.22-1.01-.49-1.75-1.49-1.96-2.64-.34-.01-.71-.08-1.05-.25-.69-.35-1.41-1.12-1.41-2.89,0-.73.25-1.23.6-1.58.34-.33.79-.54,1.29-.62.6-.1,1.28-.01,1.76.09.19-.19.44-.41.71-.58.63-.4,1.38-.55,2.07-.21.37.18.71.5,1.01.92.22.31.42.67.62,1.04,1.05.16,1.82.56,2.36,1.13,0,0,.01.01.02.02.06,0,.13-.01.19-.02.74-.08,1.54-.35,2.18-.93.66-.61,1.19-1.57,1.19-3.15,0-2.1-.74-3.11-1.5-3.62-.64-.43-1.36-.51-1.91-.48-1.11-.84-2.76-1.17-4.41-1.52-2.39-.5-4.81-.96-6.24-2.14-2.32,1.02-4.85,1.64-6.93,1.64-1.03,0-2.19.59-3.22,1.25-.49.31-.94.64-1.35.96-.04-.02-.08-.03-.12-.05,0,0-1.56-.5-2.81.33-.76.5-1.5,1.51-1.5,3.62,0,1.58.53,2.54,1.19,3.15.55.5,1.22.77,1.87.89h0Zm18.54-1.22c.13.08.22.25.33.43.22.35.43.77.65,1.15.17.29.47.48.81.5.72.04,1.25.21,1.59.57.33.35.45.85.47,1.46.03,1.16-.57,1.92-1.27,2.01-.33.04-.66-.12-.84-.48-.22-.44-.72-.65-1.18-.51-1.07.33-1.94-.8-1.73-1.85.07-.36-.06-.73-.35-.97-.28-.23-.67-.29-1.01-.15,0,0-.42.21-.75.04-.25-.13-.32-.47-.32-1.11,0-.07-.02-.13.02-.16.11-.11.3-.09.48-.09.59,0,1.18.2,1.18.2.1.03.21.05.32.05,0,0,.45.06.8-.4.04-.05.22-.28.47-.48.07-.05.14-.11.22-.15.03-.02.08-.03.1-.04h0Zm-12.31.79c.18.18.17.45.14.69-.05.6-.33,1.15-.33,1.15-.1.2-.13.43-.09.64.21,1.05-.66,2.17-1.73,1.85-.47-.14-.97.07-1.18.51-.18.36-.51.52-.84.48-.7-.09-1.3-.85-1.27-2.01.01-.61.14-1.11.47-1.46.34-.36.87-.53,1.59-.57.34-.02.64-.21.81-.5.71-1.25,1.81-1.41,2.42-.79h0Zm8.04-4.97c.66.6,1.37.9,2.08.92.71.02,1.47-.24,2.24-.91.42-.36.46-.99.1-1.41-.36-.42-.99-.46-1.41-.1-.31.27-.59.43-.88.42-.28,0-.54-.17-.8-.41-.41-.37-1.04-.34-1.41.07-.37.41-.34,1.04.07,1.41h0Zm-9,0c.66.6,1.37.9,2.08.92.71.02,1.47-.24,2.24-.91.42-.36.46-.99.1-1.41-.36-.42-.99-.46-1.41-.1-.31.27-.59.43-.88.42-.28,0-.54-.17-.8-.41-.41-.37-1.04-.34-1.41.07-.37.41-.34,1.04.07,1.41h0ZM2.5,14c-1.38,0-2.5,1.12-2.5,2.5s1.12,2.5,2.5,2.5,2.5-1.12,2.5-2.5-1.12-2.5-2.5-2.5h0Zm35-1c-1.38,0-2.5,1.12-2.5,2.5s1.12,2.5,2.5,2.5,2.5-1.12,2.5-2.5-1.12-2.5-2.5-2.5h0ZM13.41,3.76c1.41-.52,2.96-.78,4.6-.76.55,0,1,.46.99,1.01s-.46,1-1.01.99c-3.04-.03-5.71,1.06-7.54,3.1-1.49,1.67-2.4,3.95-2.51,6.74.51-.41,1.12-.86,1.76-1.28,1.37-.88,2.93-1.57,4.3-1.57,2.88,0,6.7-1.37,9.3-3.26,1.54-1.12,2.69-2.39,2.7-3.73v-.02c0-1.34-.36-2.58-1.3-3.5-.89-.86-2.34-1.48-4.7-1.48-4.13,0-5.9,2.37-6.59,3.76h0Zm14.34,2.64c-.49,1.4-1.66,2.78-3.27,3.95-.47.34-.97.66-1.49.97,1.24.62,2.93.88,4.59,1.22,1.71.36,3.38.79,4.68,1.56,0-.07,0-.14.01-.21-.08-1.64-.51-3.09-1.23-4.34-.54-.93-1.25-1.76-2.1-2.47-.37-.25-.77-.47-1.19-.68h0Zm-22.25.6c-1.38,0-2.5,1.12-2.5,2.5s1.12,2.5,2.5,2.5,2.5-1.12,2.5-2.5-1.12-2.5-2.5-2.5h0Z" fill-rule="evenodd"/><text x="0" y="55" fill="#000000" font-size="5px" font-weight="bold" font-family="'Helvetica Neue', Helvetica, Arial-Unicode, Arial, Sans-serif">Created by Soni Sokell</text><text x="0" y="60" fill="#000000" font-size="5px" font-weight="bold" font-family="'Helvetica Neue', Helvetica, Arial-Unicode, Arial, Sans-serif">from the Noun Project</text></svg>