<svg id="wave" style="transform:rotate(0deg); transition: 0.3s" viewBox="0 0 1440 100" version="1.1" xmlns="http://www.w3.org/2000/svg"><defs><linearGradient id="sw-gradient-0" x1="0" x2="0" y1="1" y2="0"><stop stop-color="rgba(39, 40, 41, 1)" offset="0%"></stop><stop stop-color="rgba(26, 27, 28, 1)" offset="100%"></stop></linearGradient></defs><path style="transform:translate(0, 0px); opacity:1" fill="url(#sw-gradient-0)" d="M0,40L10.9,45C21.8,50,44,60,65,53.3C87.3,47,109,23,131,15C152.7,7,175,13,196,25C218.2,37,240,53,262,53.3C283.6,53,305,37,327,36.7C349.1,37,371,53,393,63.3C414.5,73,436,77,458,76.7C480,77,502,73,524,66.7C545.5,60,567,50,589,46.7C610.9,43,633,47,655,50C676.4,53,698,57,720,50C741.8,43,764,27,785,31.7C807.3,37,829,63,851,65C872.7,67,895,43,916,36.7C938.2,30,960,40,982,50C1003.6,60,1025,70,1047,66.7C1069.1,63,1091,47,1113,36.7C1134.5,27,1156,23,1178,25C1200,27,1222,33,1244,41.7C1265.5,50,1287,60,1309,55C1330.9,50,1353,30,1375,21.7C1396.4,13,1418,17,1440,18.3C1461.8,20,1484,20,1505,21.7C1527.3,23,1549,27,1560,28.3L1570.9,30L1570.9,100L1560,100C1549.1,100,1527,100,1505,100C1483.6,100,1462,100,1440,100C1418.2,100,1396,100,1375,100C1352.7,100,1331,100,1309,100C1287.3,100,1265,100,1244,100C1221.8,100,1200,100,1178,100C1156.4,100,1135,100,1113,100C1090.9,100,1069,100,1047,100C1025.5,100,1004,100,982,100C960,100,938,100,916,100C894.5,100,873,100,851,100C829.1,100,807,100,785,100C763.6,100,742,100,720,100C698.2,100,676,100,655,100C632.7,100,611,100,589,100C567.3,100,545,100,524,100C501.8,100,480,100,458,100C436.4,100,415,100,393,100C370.9,100,349,100,327,100C305.5,100,284,100,262,100C240,100,218,100,196,100C174.5,100,153,100,131,100C109.1,100,87,100,65,100C43.6,100,22,100,11,100L0,100Z"></path><defs><linearGradient id="sw-gradient-1" x1="0" x2="0" y1="1" y2="0"><stop stop-color="rgba(26, 27, 28, 1)" offset="0%"></stop><stop stop-color="rgba(39, 40, 41, 1)" offset="100%"></stop></linearGradient></defs><path style="transform:translate(0, 50px); opacity:0.9" fill="url(#sw-gradient-1)" d="M0,20L10.9,31.7C21.8,43,44,67,65,70C87.3,73,109,57,131,48.3C152.7,40,175,40,196,33.3C218.2,27,240,13,262,8.3C283.6,3,305,7,327,15C349.1,23,371,37,393,43.3C414.5,50,436,50,458,55C480,60,502,70,524,63.3C545.5,57,567,33,589,30C610.9,27,633,43,655,46.7C676.4,50,698,40,720,40C741.8,40,764,50,785,51.7C807.3,53,829,47,851,45C872.7,43,895,47,916,50C938.2,53,960,57,982,63.3C1003.6,70,1025,80,1047,80C1069.1,80,1091,70,1113,56.7C1134.5,43,1156,27,1178,21.7C1200,17,1222,23,1244,28.3C1265.5,33,1287,37,1309,36.7C1330.9,37,1353,33,1375,40C1396.4,47,1418,63,1440,60C1461.8,57,1484,33,1505,20C1527.3,7,1549,3,1560,1.7L1570.9,0L1570.9,100L1560,100C1549.1,100,1527,100,1505,100C1483.6,100,1462,100,1440,100C1418.2,100,1396,100,1375,100C1352.7,100,1331,100,1309,100C1287.3,100,1265,100,1244,100C1221.8,100,1200,100,1178,100C1156.4,100,1135,100,1113,100C1090.9,100,1069,100,1047,100C1025.5,100,1004,100,982,100C960,100,938,100,916,100C894.5,100,873,100,851,100C829.1,100,807,100,785,100C763.6,100,742,100,720,100C698.2,100,676,100,655,100C632.7,100,611,100,589,100C567.3,100,545,100,524,100C501.8,100,480,100,458,100C436.4,100,415,100,393,100C370.9,100,349,100,327,100C305.5,100,284,100,262,100C240,100,218,100,196,100C174.5,100,153,100,131,100C109.1,100,87,100,65,100C43.6,100,22,100,11,100L0,100Z"></path></svg>